<svg xmlns="http://www.w3.org/2000/svg" xmlns:xlink="http://www.w3.org/1999/xlink" width="500" zoomAndPan="magnify" viewBox="0 0 375 374.999991" height="500" preserveAspectRatio="xMidYMid meet" version="1.0"><defs><clipPath id="901912052d"><path d="M 41 47 L 328 47 L 328 334 L 41 334 Z M 41 47 " clip-rule="nonzero"/></clipPath><clipPath id="aae9651101"><path d="M 184.539062 -12 L 386.996094 190.457031 L 184.539062 392.910156 L -17.914062 190.457031 Z M 184.539062 -12 " clip-rule="nonzero"/></clipPath><clipPath id="b870501182"><path d="M 285.769531 89.226562 C 229.859375 33.320312 139.21875 33.320312 83.3125 89.226562 C 27.40625 145.132812 27.40625 235.777344 83.3125 291.683594 C 139.21875 347.589844 229.859375 347.589844 285.769531 291.683594 C 341.675781 235.777344 341.675781 145.132812 285.769531 89.226562 Z M 285.769531 89.226562 " clip-rule="nonzero"/></clipPath><clipPath id="f0e13f8350"><path d="M 68 74 L 301 74 L 301 307 L 68 307 Z M 68 74 " clip-rule="nonzero"/></clipPath><clipPath id="b26c421ba9"><path d="M 184.539062 26.246094 L 348.746094 190.457031 L 184.539062 354.664062 L 20.332031 190.457031 Z M 184.539062 26.246094 " clip-rule="nonzero"/></clipPath><clipPath id="182bbe6bd4"><path d="M 266.644531 108.351562 C 221.300781 63.007812 147.78125 63.007812 102.4375 108.351562 C 57.089844 153.695312 57.089844 227.214844 102.4375 272.558594 C 147.78125 317.902344 221.300781 317.902344 266.644531 272.558594 C 311.988281 227.214844 311.988281 153.695312 266.644531 108.351562 Z M 266.644531 108.351562 " clip-rule="nonzero"/></clipPath><clipPath id="fa60b3f279"><path d="M 114 120 L 255 120 L 255 261 L 114 261 Z M 114 120 " clip-rule="nonzero"/></clipPath><clipPath id="2d0e240558"><path d="M 184.539062 91.691406 L 283.304688 190.457031 L 184.539062 289.21875 L 85.777344 190.457031 Z M 184.539062 91.691406 " clip-rule="nonzero"/></clipPath><clipPath id="9394f86d8a"><path d="M 233.921875 141.074219 C 206.648438 113.800781 162.429688 113.800781 135.160156 141.074219 C 107.886719 168.347656 107.886719 212.5625 135.160156 239.835938 C 162.429688 267.109375 206.648438 267.109375 233.921875 239.835938 C 261.195312 212.5625 261.195312 168.347656 233.921875 141.074219 Z M 233.921875 141.074219 " clip-rule="nonzero"/></clipPath><clipPath id="8027599008"><path d="M 60 275 L 100 275 L 100 315 L 60 315 Z M 60 275 " clip-rule="nonzero"/></clipPath><clipPath id="4a2dd48f32"><path d="M 76.769531 275.886719 L 99.105469 298.226562 L 83.238281 314.097656 L 60.898438 291.757812 Z M 76.769531 275.886719 " clip-rule="nonzero"/></clipPath><clipPath id="d6c0599da3"><path d="M 25 291 L 84 291 L 84 350 L 25 350 Z M 25 291 " clip-rule="nonzero"/></clipPath><clipPath id="378cd901ed"><path d="M 60.898438 291.757812 L 83.238281 314.097656 L 48.210938 349.125 L 25.871094 326.785156 Z M 60.898438 291.757812 " clip-rule="nonzero"/></clipPath><clipPath id="7c5f24d396"><path d="M 141 56 L 359 56 L 359 236 L 141 236 Z M 141 56 " clip-rule="nonzero"/></clipPath><clipPath id="68a261efff"><path d="M 108.613281 111.933594 L 351.152344 50.175781 L 383.09375 175.628906 L 140.554688 237.386719 Z M 108.613281 111.933594 " clip-rule="nonzero"/></clipPath><clipPath id="94e4623d0b"><path d="M 108.613281 111.933594 L 351.152344 50.175781 L 383.09375 175.628906 L 140.554688 237.386719 Z M 108.613281 111.933594 " clip-rule="nonzero"/></clipPath></defs><g clip-path="url(#901912052d)"><g clip-path="url(#aae9651101)"><g clip-path="url(#b870501182)"><path fill="#2563eb" d="M 184.539062 -12 L 386.996094 190.457031 L 184.539062 392.910156 L -17.914062 190.457031 Z M 184.539062 -12 " fill-opacity="1" fill-rule="nonzero"/></g></g></g><g clip-path="url(#f0e13f8350)"><g clip-path="url(#b26c421ba9)"><g clip-path="url(#182bbe6bd4)"><path fill="#fafafa" d="M 184.539062 26.246094 L 348.746094 190.457031 L 184.539062 354.664062 L 20.332031 190.457031 Z M 184.539062 26.246094 " fill-opacity="1" fill-rule="nonzero"/></g></g></g><g clip-path="url(#fa60b3f279)"><g clip-path="url(#2d0e240558)"><g clip-path="url(#9394f86d8a)"><path fill="#bdd2ff" d="M 184.539062 91.691406 L 283.304688 190.457031 L 184.539062 289.21875 L 85.777344 190.457031 Z M 184.539062 91.691406 " fill-opacity="1" fill-rule="nonzero"/></g></g></g><g clip-path="url(#8027599008)"><g clip-path="url(#4a2dd48f32)"><path fill="#2563eb" d="M 76.769531 275.886719 L 99.082031 298.203125 L 83.214844 314.074219 L 60.898438 291.757812 Z M 76.769531 275.886719 " fill-opacity="1" fill-rule="nonzero"/></g></g><g clip-path="url(#d6c0599da3)"><g clip-path="url(#378cd901ed)"><path fill="#000000" d="M 60.898438 291.757812 L 83.238281 314.097656 L 48.246094 349.089844 L 25.90625 326.75 Z M 60.898438 291.757812 " fill-opacity="1" fill-rule="nonzero"/></g></g><g clip-path="url(#7c5f24d396)"><g clip-path="url(#68a261efff)"><g clip-path="url(#94e4623d0b)"><path fill="#2f3c36" d="M 345.898438 56.140625 L 276.832031 69.410156 C 272.703125 70.152344 271.566406 75.375 274.984375 77.894531 L 297.445312 94.679688 C 299.699219 96.265625 299.855469 99.308594 298.488281 101.195312 L 258.578125 153.902344 C 256.917969 155.867188 254.3125 156.53125 252.058594 154.945312 L 224.734375 136.007812 L 216.519531 130.390625 C 214.269531 128.808594 211.371094 129.542969 210.003906 131.433594 L 204.746094 138.628906 L 142.097656 227.953125 C 140.726562 229.84375 141.101562 232.523438 142.777344 234.253906 C 144.738281 235.914062 147.492188 235.828125 149.222656 234.152344 L 215.027344 170.539062 C 216.761719 168.867188 219.222656 168.855469 221.039062 169.933594 L 250.910156 190.382812 L 259.121094 196 C 261.300781 197.292969 263.980469 196.917969 265.636719 194.957031 L 271.617188 186.960938 L 322.402344 118.84375 C 323.988281 116.59375 327.03125 116.433594 328.921875 117.800781 L 351.382812 134.585938 C 354.800781 137.109375 359.351562 134.40625 358.898438 130.207031 L 351.855469 60.171875 C 351.195312 57.566406 348.503906 55.476562 345.898438 56.140625 Z M 345.898438 56.140625 " fill-opacity="1" fill-rule="nonzero"/></g></g></g></svg>